<svg xmlns="http://www.w3.org/2000/svg" viewBox="0 0 215.94 42.11"><defs><style>.cls-1{fill:#231815;}</style></defs><title>アセット 1</title><g id="レイヤー_2" data-name="レイヤー 2"><g id="レイヤー_1-2" data-name="レイヤー 1"><path class="cls-1" d="M137.51,31.59l-6.85-.14a21.86,21.86,0,0,0-2.89.18c-.9.12-1.45.18-1.66.18a.88.88,0,0,1-.59-.25.7.7,0,0,1-.29-.57.53.53,0,0,1,.35-.49,3.62,3.62,0,0,1,.82-.22,1.94,1.94,0,0,0,1-.53,2.77,2.77,0,0,0,.8-1.34,15.67,15.67,0,0,0,.44-1.95l3-22.09c.06-.47.09-.73.09-.79a1.61,1.61,0,0,0-.62-1.22,2.25,2.25,0,0,0-1.37-.59c-1.35-.09-2-.41-2-.95s.46-.82,1.37-.82a12.13,12.13,0,0,1,2.06.24,13.32,13.32,0,0,0,2.4.25A29,29,0,0,0,136.6.26,36.12,36.12,0,0,1,140.42,0q8.4,0,12.35,3.52a11.49,11.49,0,0,1,4,9,19.63,19.63,0,0,1-3.45,10.8,17.73,17.73,0,0,1-2.8,3.29,17.68,17.68,0,0,1-3,2.41A18.87,18.87,0,0,1,137.51,31.59Zm-4.13-14.54q-1.44,11.31-1.44,11.75a1.21,1.21,0,0,0,.44.86,2.5,2.5,0,0,0,1.68.42H138a14.47,14.47,0,0,0,4.6-.92A14,14,0,0,0,150,22.84a20.52,20.52,0,0,0,2.47-7.73,17.12,17.12,0,0,0,.22-2.7,11.42,11.42,0,0,0-.31-2.62A9.6,9.6,0,0,0,151.16,7a9.33,9.33,0,0,0-2.25-2.56,11.14,11.14,0,0,0-3.69-1.79,17.75,17.75,0,0,0-5.17-.71,11.52,11.52,0,0,0-3.64.35c-.53.24-1,.93-1.29,2.08Q134.82,5.74,133.38,17.05Z"/><path class="cls-1" d="M161.19,31.45l-4.95.14c-1,0-1.55-.2-1.55-.6s.34-.61,1-.64a2,2,0,0,0,1.54-.71,3.91,3.91,0,0,0,.78-1.46c.14-.53.29-1.25.44-2.16s.23-1.44.24-1.57.14-.92.38-2.36.41-2.64.53-3.58l1.59-13.39c0-.26,0-.69,0-1.28a2.12,2.12,0,0,0-.53-1.48,1.72,1.72,0,0,0-1.15-.64c-1.12-.09-1.67-.34-1.67-.77s.33-.64,1-.64L170.07.4l10.2-.18c.53,0,.8.28.8.84l-.18,2.34L181,5.79Q181,7,180.45,7c-.44,0-.66-.35-.66-1.06a3,3,0,0,0-1.46-2.78,7.32,7.32,0,0,0-1.55-.6,8.59,8.59,0,0,0-2.47-.33l-6.8-.13a3.86,3.86,0,0,0-2.37.44,6,6,0,0,0-.77,2.56q-1.11,7.74-1.11,8.57c0,.56.1.87.29.93a36.05,36.05,0,0,0,3.82.09,43.38,43.38,0,0,0,4.88-.18,2.79,2.79,0,0,0,1.86-.79,4.93,4.93,0,0,0,.77-1.24c.18-.41.31-.71.4-.88a.43.43,0,0,1,.4-.27c.35,0,.53.15.53.44a13.43,13.43,0,0,1-.38,2.1q-.37,1.66-.48,2.34a12.11,12.11,0,0,0-.11,1.93c0,1.76-.24,2.65-.71,2.65-.32,0-.49-.24-.49-.71,0-1.41-.25-2.3-.75-2.65-.85-.62-2.43-.93-4.72-.93h-2.12l-1.37,0h-.27c-1.12,0-1.69.25-1.72.75-.09.88-.27,2.19-.53,3.93q-1.06,6.54-1.06,7a1.28,1.28,0,0,0,1.06,1.35,22.87,22.87,0,0,0,4.66.29,24.8,24.8,0,0,0,6.23-.69,9.39,9.39,0,0,0,3.58-1.5,20.07,20.07,0,0,0,1.59-1.5c.42-.46.72-.68.9-.68s.44.2.44.61c0,.8-.62,2-1.85,3.54s-2.33,2.34-3.27,2.34c-2.12,0-4.77-.08-7.93-.24S161.84,31.45,161.19,31.45Z"/><path class="cls-1" d="M212.28.57l2.27-.08c1,0,1.47.16,1.39.48a.84.84,0,0,1-.78.66,3.8,3.8,0,0,0-1.85.75,16.94,16.94,0,0,0-2.95,3.12c-1.27,1.61-2.83,3.64-4.65,6.1s-3.22,4.25-4.17,5.39-2,2.43-3.23,3.88-2.22,2.71-3.08,3.74l-2.72,3.27a49.66,49.66,0,0,1-4,4.41.84.84,0,0,1-.54.22c-.38,0-.58-.69-.59-2.07a3.3,3.3,0,0,1,0-.58L186.61,8c0-1.12-.05-1.92-.09-2.41a7.82,7.82,0,0,0-.38-1.7,2.54,2.54,0,0,0-.78-1.3A2.91,2.91,0,0,0,183.7,2c-.45-.06-.62-.36-.49-.89s.7-.66,1.76-.66l3.49.18L192,.44c1.06,0,1.54.19,1.45.58a.81.81,0,0,1-.74.55,3.38,3.38,0,0,0-1.34.62,2.76,2.76,0,0,0-1,1.7q-.3,1.18.1,12.08c.27,7.26.56,10.89.89,10.89s3.28-3.69,9-11.07,8.77-11.5,9-12.39A1,1,0,0,0,209,2.32a1.88,1.88,0,0,0-1.11-.42c-1.11-.15-1.61-.46-1.49-.93a.81.81,0,0,1,.27-.48,1.44,1.44,0,0,1,.76-.14Z"/><path class="cls-1" d="M2.83,24.79a1.85,1.85,0,0,1,1.64.84,1.49,1.49,0,0,1,.25,1.5,7.73,7.73,0,0,1-.82,1.33A7.35,7.35,0,0,0,6,28.15a17.29,17.29,0,0,0,2.12-.75c.69-.3,1.37-.61,2-.93A14.57,14.57,0,0,1,12,25.69a5.6,5.6,0,0,1,1.43-.3,3.27,3.27,0,0,1,1.41.18,2.6,2.6,0,0,1,1.07.72,2.42,2.42,0,0,1,.54,1.32A44.72,44.72,0,0,1,25,25.15L26,25c.4-.08.8-.15,1.22-.21a4.7,4.7,0,0,1,1.18,0,2.36,2.36,0,0,1,1,.3,1.6,1.6,0,0,1,.65.9A2.08,2.08,0,0,1,30,27a1.63,1.63,0,0,1-.57.84,1.55,1.55,0,0,1-1,.33,23.92,23.92,0,0,0-6.07.55,42.82,42.82,0,0,0-5.89,1.74,6.56,6.56,0,0,1-1,2.13,19.77,19.77,0,0,1-1.67,2,24.12,24.12,0,0,1-1.83,1.71c-.62.52-1.16,1-1.61,1.38L8.47,39.16A21.25,21.25,0,0,1,6,40.9,9.55,9.55,0,0,1,3.37,42a2.6,2.6,0,0,1-2.29-.39A2.15,2.15,0,0,1,0,39.4a5.44,5.44,0,0,1,1.44-2.56,19.48,19.48,0,0,1,3-2.59c1.2-.86,2.39-1.65,3.58-2.37s2.26-1.32,3.21-1.8l1.89-1,.4-.18q-.12-.3-1.38.18l-3,1.11C8,30.65,6.85,31,5.62,31.34a7.29,7.29,0,0,1-3.13.24A3,3,0,0,1,.8,30.89a1.74,1.74,0,0,1-.53-1.2,3.58,3.58,0,0,1,.28-1.48,9.6,9.6,0,0,1,.76-1.5,1.74,1.74,0,0,1,.28-1.26A1.53,1.53,0,0,1,2.83,24.79Zm6.09,9.8a9.77,9.77,0,0,1,1-.88c.49-.38.9-.73,1.24-1.05l-1.27.78c-.51.32-.91.58-1.21.79s-.59.34-1.1.66S6.55,35.58,6,36A18.1,18.1,0,0,0,4.3,37.35a5.69,5.69,0,0,0-1.13,1.32A8.48,8.48,0,0,0,6.24,36.9Z"/><path class="cls-1" d="M55.11,28.09a17.28,17.28,0,0,0-2.57.45c-.84.23-1.7.44-2.56.64q-3.39.84-6.71,1.59a58.61,58.61,0,0,1-6.77,1.11q-.9.12-1.89.18a10.79,10.79,0,0,1-2-.06,8.41,8.41,0,0,1-1.89-.45,5,5,0,0,1-1.64-1,4.32,4.32,0,0,1-1-1.26,4.47,4.47,0,0,1-.45-1.51,4,4,0,0,1,.14-1.53,3.25,3.25,0,0,1,.85-1.35,2.9,2.9,0,0,1,1.27-.69,10.56,10.56,0,0,1,1.94-.39A12.88,12.88,0,0,1,34,23.77a5.19,5.19,0,0,1,1.86.42,2.2,2.2,0,0,1,1.1,1,1.91,1.91,0,0,1-.09,1.59,2,2,0,0,1-1,1,4.78,4.78,0,0,1-1.52.39,7.32,7.32,0,0,1-1.75,0c-.6-.06-1.13-.13-1.58-.21a1.81,1.81,0,0,0,.9.39,9,9,0,0,0,1.44.22q.77.06,1.41.06h.82a43.29,43.29,0,0,0,5.5-.85q2.73-.6,5.44-1.26c1.31-.32,2.62-.65,3.92-1a29.14,29.14,0,0,1,3.92-.75,1.89,1.89,0,0,1,1.41.42,2.21,2.21,0,0,1,.73,1.11,1.53,1.53,0,0,1-.14,1.17A1.46,1.46,0,0,1,55.11,28.09Z"/><path class="cls-1" d="M87.08,10.36a59.19,59.19,0,0,0-5,4.12c-1.58,1.46-3.1,3-4.57,4.6q-1.18,1.32-2.31,2.67c-.75.9-1.48,1.84-2.2,2.8-.15.2-.36.47-.65.81s-.58.72-.9,1.14a13.26,13.26,0,0,0-.87,1.29A7.75,7.75,0,0,0,70,29.06a12,12,0,0,0,1.89-.64c.62-.25,1.24-.53,1.88-.81L77,26.29a24.62,24.62,0,0,1,3.24-1.08l1.86-.42a2.24,2.24,0,0,1,1.87.3,1.62,1.62,0,0,1,.67.9,1.32,1.32,0,0,1-.08.9,2.35,2.35,0,0,1-.62.78,2.08,2.08,0,0,1-.93.48c-.64.17-1.29.31-2,.43a11,11,0,0,0-1.94.54c-1.51.56-3,1.18-4.43,1.86a20,20,0,0,1-4.54,1.5,4.85,4.85,0,0,1-1.61,0,2,2,0,0,1-1.32-.93,2.83,2.83,0,0,1-.48-1.68,6.06,6.06,0,0,1,.42-1.93c-.83.48-1.73,1-2.71,1.45s-2,.93-3,1.35-2,.78-2.87,1.08-1.72.53-2.4.69a4.85,4.85,0,0,1-1.61,0,2,2,0,0,1-1.32-.93,3.23,3.23,0,0,1-.34-2.79,11.88,11.88,0,0,1,1.44-3.16,23.27,23.27,0,0,1,2.17-2.92l1.86-2.13c1.54-1.8,3.13-3.54,4.76-5.2s3.34-3.25,5.11-4.78c.52-.44,1.12-1,1.77-1.65a4.34,4.34,0,0,1,2-1.23,1.12,1.12,0,0,1,1,.09,1.6,1.6,0,0,1,.62.72,1.73,1.73,0,0,1,.11,1,1.38,1.38,0,0,1-.54.9,59.19,59.19,0,0,0-5,4.12c-1.58,1.46-3.1,3-4.57,4.6q-1.18,1.32-2.31,2.67c-.75.9-1.48,1.84-2.2,2.8-.15.2-.37.48-.67.84s-.61.75-.91,1.17-.59.85-.87,1.29a5.31,5.31,0,0,0-.59,1.21,23.56,23.56,0,0,0,3.1-.81c1.16-.39,2.37-.85,3.61-1.39s2.49-1.12,3.75-1.74a40,40,0,0,0,3.52-1.95,19,19,0,0,1,1.22-1.51c.39-.44.74-.82,1-1.14,1.54-1.8,3.13-3.54,4.76-5.2s3.34-3.25,5.11-4.78c.52-.44,1.12-1,1.77-1.65a4.34,4.34,0,0,1,2-1.23,1.13,1.13,0,0,1,1,.09,1.67,1.67,0,0,1,.62.72,1.73,1.73,0,0,1,.11,1A1.42,1.42,0,0,1,87.08,10.36ZM56,30a.67.67,0,0,0-.05-.3A.59.59,0,0,0,56,30Z"/><path class="cls-1" d="M100,28.09q-2.88.06-5.87.16a20,20,0,0,1-5.86-.71,1,1,0,0,1-.45-.12,7.75,7.75,0,0,1-1,2A7.9,7.9,0,0,1,85.39,31a5.15,5.15,0,0,1-1.72,1,3.18,3.18,0,0,1-1.83.06,2.11,2.11,0,0,1-1.27-.9,3.17,3.17,0,0,1-.48-1.5,4.75,4.75,0,0,1,.2-1.7,5.72,5.72,0,0,1,.7-1.52,4.51,4.51,0,0,1,1.86-1.46,3.11,3.11,0,0,1,2.26-.13,1.75,1.75,0,0,1,.9-1.32,1.47,1.47,0,0,1,1.69.12,6.74,6.74,0,0,0,1.84.81,9.75,9.75,0,0,0,2,.33c.72,0,1.42.05,2.12,0l2,0a21.36,21.36,0,0,0,2.43-.15,5.38,5.38,0,0,1,2.36.21,1.53,1.53,0,0,1,.88.79,2,2,0,0,1,.17,1.11,1.93,1.93,0,0,1-.48,1A1.39,1.39,0,0,1,100,28.09Zm-16.86.79c.11-.13.33-.18.67-.18v-.55a1.26,1.26,0,0,1-.34.27A.93.93,0,0,0,83.14,28.88Z"/><path class="cls-1" d="M131.07,27.76q-3.1-.21-6.2-.51l-2.17.69c-.7.23-1.37.48-2,.76-.94.32-1.93.72-3,1.2a9.09,9.09,0,0,1-3,.84,2.77,2.77,0,0,0-.42,0,1.35,1.35,0,0,1-.48,0,1.84,1.84,0,0,1-1.41-1,3.89,3.89,0,0,1-.23-1.66,43.21,43.21,0,0,0-4.82,2,17.7,17.7,0,0,1-4.88,1.56,3.7,3.7,0,0,1-2.08-.12A1.92,1.92,0,0,1,99,29.9,10.09,10.09,0,0,1,99,27.73a1.73,1.73,0,0,1-.45-.84,1.63,1.63,0,0,1,0-.93,2.08,2.08,0,0,1,.47-.81,1.27,1.27,0,0,1,1-.36,2.13,2.13,0,0,1,1,.24,2,2,0,0,1,.84.66,1.5,1.5,0,0,1,.23.81,4.36,4.36,0,0,1-.11.93,6.68,6.68,0,0,0-.17,1,4.53,4.53,0,0,0,1.44-.12,10.24,10.24,0,0,0,1.52-.48c.51-.2,1-.41,1.46-.63l1.27-.57q1.47-.6,2.94-1.29a14.78,14.78,0,0,1,3-1.05,2.27,2.27,0,0,1,1.21.24,1.06,1.06,0,0,1,.48.63,2.31,2.31,0,0,1,.06.93c0,.36-.08.72-.11,1.08a33.81,33.81,0,0,0,4.65-1.8A15.33,15.33,0,0,1,124.53,24a20.5,20.5,0,0,1,4.93.12"/></g></g></svg>